<?xml version="1.0" encoding="UTF-8" standalone="no"?><!DOCTYPE svg PUBLIC "-//W3C//DTD SVG 1.1//EN" "http://www.w3.org/Graphics/SVG/1.1/DTD/svg11.dtd"><svg width="100%" height="100%" viewBox="0 0 48 48" version="1.1" xmlns="http://www.w3.org/2000/svg" xmlns:xlink="http://www.w3.org/1999/xlink" xml:space="preserve" xmlns:serif="http://www.serif.com/" style="fill-rule:evenodd;clip-rule:evenodd;stroke-linejoin:round;stroke-miterlimit:1.41421;"><path id="surface1" d="M24,0c-13.234,0 -24,10.766 -24,24c0,13.234 10.766,24 24,24c13.234,0 24,-10.766 24,-24c0,-13.234 -10.766,-24 -24,-24Zm0,4c5.07,0 9.664,1.906 13.188,5c-0.376,0.523 -0.883,1.156 -1.688,1.938c-1.711,1.656 -4.445,3.648 -8.625,5.187c-2.828,-5.227 -5.602,-9.156 -7.438,-11.625c1.461,-0.336 2.993,-0.5 4.563,-0.5Zm-8.5,1.875c1.641,2.148 4.563,6.133 7.5,11.438c-8.133,2.156 -15.594,2.429 -18.563,2.437c1.329,-6.18 5.485,-11.266 11.063,-13.875Zm24.438,6.062c2.437,3.227 3.953,7.219 4.062,11.563c-1.781,-0.398 -4.406,-0.789 -7.813,-0.813c-1.773,-0.007 -3.781,0.118 -5.937,0.375c-0.5,-1.14 -1.039,-2.242 -1.562,-3.312c4.484,-1.719 7.539,-3.984 9.562,-5.938c0.688,-0.671 1.227,-1.289 1.688,-1.875Zm-15.125,9c0.46,0.93 0.929,1.883 1.375,2.875c-8.547,2.368 -14.688,9.618 -17.313,13.25c-3.023,-3.5 -4.875,-8.062 -4.875,-13.062c0,-0.086 0,-0.164 0,-0.25c2.703,0.031 11.297,-0.156 20.813,-2.813Zm11.375,5.688c3.57,0 6.039,0.5 7.5,0.875c-0.93,5.328 -3.938,9.898 -8.188,12.875c-0.797,-4.781 -2.109,-9.328 -3.687,-13.5c1.578,-0.156 3.07,-0.25 4.375,-0.25Zm-8.438,0.937c1.797,4.563 3.305,9.571 4.063,14.875c-2.391,1.008 -5.047,1.563 -7.813,1.563c-4.586,0 -8.82,-1.539 -12.187,-4.125c2.054,-2.813 8.093,-10.297 15.937,-12.313Z" style="fill:#fff;fill-rule:nonzero;"/></svg>