<?xml version="1.0" encoding="UTF-8" standalone="no"?><!DOCTYPE svg PUBLIC "-//W3C//DTD SVG 1.1//EN" "http://www.w3.org/Graphics/SVG/1.1/DTD/svg11.dtd"><svg width="100%" height="100%" viewBox="0 0 48 47" version="1.1" xmlns="http://www.w3.org/2000/svg" xmlns:xlink="http://www.w3.org/1999/xlink" xml:space="preserve" xmlns:serif="http://www.serif.com/" style="fill-rule:evenodd;clip-rule:evenodd;stroke-linejoin:round;stroke-miterlimit:1.41421;"><path id="surface1" d="M24,0c-13.258,0 -24,10.742 -24,24c0,10.602 6.875,19.602 16.414,22.773c1.203,0.219 1.641,-0.515 1.641,-1.156c0,-0.57 -0.024,-2.078 -0.032,-4.078c-6.679,1.445 -8.085,-3.219 -8.085,-3.219c-1.094,-2.773 -2.665,-3.515 -2.665,-3.515c-2.179,-1.485 0.165,-1.453 0.165,-1.453c2.406,0.171 3.671,2.468 3.671,2.468c2.141,3.672 5.618,2.61 6.985,2c0.219,-1.554 0.844,-2.609 1.523,-3.211c-5.328,-0.601 -10.929,-2.664 -10.929,-11.859c0,-2.625 0.937,-4.766 2.468,-6.445c-0.242,-0.602 -1.07,-3.047 0.235,-6.352c0,0 2.015,-0.64 6.601,2.461c1.914,-0.531 3.969,-0.797 6.008,-0.805c2.039,0.008 4.094,0.274 6.008,0.805c4.586,-3.101 6.594,-2.461 6.594,-2.461c1.312,3.305 0.492,5.75 0.242,6.352c1.539,1.679 2.461,3.82 2.461,6.445c0,9.219 -5.61,11.242 -10.953,11.844c0.859,0.734 1.625,2.203 1.625,4.437c0,3.211 -0.024,5.797 -0.024,6.586c0,0.641 0.43,1.391 1.649,1.156c9.531,-3.179 16.398,-12.171 16.398,-22.773c0,-13.258 -10.742,-24 -24,-24Z" style="fill:#fff;"/></svg>