<?xml version="1.0" encoding="UTF-8" standalone="no"?><!DOCTYPE svg PUBLIC "-//W3C//DTD SVG 1.1//EN" "http://www.w3.org/Graphics/SVG/1.1/DTD/svg11.dtd"><svg width="100%" height="100%" viewBox="0 0 84 84" version="1.1" xmlns="http://www.w3.org/2000/svg" xmlns:xlink="http://www.w3.org/1999/xlink" xml:space="preserve" xmlns:serif="http://www.serif.com/" style="fill-rule:evenodd;clip-rule:evenodd;stroke-linejoin:round;stroke-miterlimit:1.41421;"><path d="M74,0l-64,0c-5.52,0 -10,4.48 -10,10l0,64c0,5.52 4.48,10 10,10l64,0c5.52,0 10,-4.48 10,-10l0,-64c0,-5.52 -4.48,-10 -10,-10Zm-48,32l0,38l-12,0l0,-38l12,0Zm-12,-11.06c0,-2.8 2.4,-4.94 6,-4.94c3.6,0 5.86,2.14 6,4.94c0,2.8 -2.24,5.06 -6,5.06c-3.6,0 -6,-2.26 -6,-5.06Zm56,49.06l-12,0c0,0 0,-18.52 0,-20c0,-4 -2,-8 -7,-8.08l-0.16,0c-4.84,0 -6.84,4.12 -6.84,8.08c0,1.82 0,20 0,20l-12,0l0,-38l12,0l0,5.12c0,0 3.86,-5.12 11.62,-5.12c7.94,0 14.38,5.46 14.38,16.52l0,21.48Z" style="fill:#fff;fill-rule:nonzero;"/></svg>